<?xml version="1.0" encoding="utf-8"?>
<!-- Generator: Adobe Illustrator 23.0.1, SVG Export Plug-In . SVG Version: 6.00 Build 0)  -->
<svg version="1.1" id="Layer_1" xmlns="http://www.w3.org/2000/svg" xmlns:xlink="http://www.w3.org/1999/xlink" x="0px" y="0px"
	 viewBox="0 0 595.4 550.4" style="enable-background:new 0 0 595.4 550.4;" xml:space="preserve">
<style type="text/css">
	.st0{fill:#84B94A;}
	.st1{fill:#333333;}
	.st2{fill:#D2DF5E;}
	.st3{fill:#F78A37;}
	.st4{fill:#F8C530;}
	.st5{fill:#EA758B;}
	.st6{fill:#D82330;}
</style>
<circle class="st0" cx="297" cy="281" r="237"/>
<path class="st1" d="M141.4,281.1c0,85.9,69.6,155.6,155.6,155.6c85.9,0,155.6-69.6,155.6-155.6H141.4L141.4,281.1z"/>
<g>
	<circle class="st1" cx="224.9" cy="199.2" r="37.2"/>
	<circle class="st1" cx="365.7" cy="199.2" r="37.2"/>
</g>
<circle class="st2" cx="851" cy="268" r="237"/>
<g>
	<path class="st1" d="M997.2,268.1C995.8,348.8,931.7,413,851,414.3c-80.7,1.3-144.9-67.5-146.2-146.2c-0.2-12.1-18.9-12.1-18.7,0
		C687.5,359,760,431.5,851,433c90.9,1.5,163.5-76.3,164.9-164.9C1016.1,256.1,997.4,256.1,997.2,268.1L997.2,268.1z"/>
	<circle class="st1" cx="778.9" cy="186.2" r="37.2"/>
	<circle class="st1" cx="919.7" cy="186.2" r="37.2"/>
</g>
<circle class="st3" cx="1541" cy="265" r="237"/>
<g>
	<circle class="st1" cx="1468.9" cy="183.2" r="37.2"/>
	<circle class="st1" cx="1609.7" cy="183.2" r="37.2"/>
	<path class="st1" d="M1647.3,344.9c-59.3,60.3-154.7,59.9-213.4-0.9c-8.4-8.7-21.6,4.6-13.2,13.2c65.8,68,173.6,68.3,239.9,0.9
		C1668.9,349.5,1655.7,336.2,1647.3,344.9L1647.3,344.9z"/>
</g>
<circle class="st4" cx="2081" cy="265" r="237"/>
<g>
	<circle class="st1" cx="2008.9" cy="183.2" r="37.2"/>
	<circle class="st1" cx="2149.7" cy="183.2" r="37.2"/>
	<path class="st1" d="M1949.3,354.6c86.4,0,172.8,0,259.2,0c12.1,0,12.1-18.7,0-18.7c-86.4,0-172.8,0-259.2,0
		C1937.2,335.9,1937.2,354.6,1949.3,354.6L1949.3,354.6z"/>
</g>
<circle class="st5" cx="2741" cy="265" r="237"/>
<g>
	<path class="st1" d="M2860.7,382.1c-66.2-67.6-174.3-67.3-240.1,0.7c-8.4,8.7,4.8,21.9,13.2,13.2c58.9-60.8,154.4-61.2,213.6-0.7
		C2855.9,404,2869.1,390.7,2860.7,382.1L2860.7,382.1z"/>
	<circle class="st1" cx="2668.9" cy="183.2" r="37.2"/>
	<circle class="st1" cx="2809.7" cy="183.2" r="37.2"/>
</g>
<circle class="st6" cx="3403" cy="265" r="237"/>
<g>
	<path class="st1" d="M3523.3,382.8c-66.1-68.3-174.7-68.3-240.7,0c-8.4,8.7,4.8,21.9,13.2,13.2c59.1-61.1,155.1-61.1,214.3,0
		C3518.5,404.7,3531.7,391.5,3523.3,382.8L3523.3,382.8z"/>
	<circle class="st1" cx="3330.9" cy="220.7" r="37.2"/>
	<circle class="st1" cx="3471.7" cy="220.7" r="37.2"/>
	<path class="st1" d="M3482.4,96.4c-28.7,28.7-57.4,57.3-86,86c4.4,0,8.8,0,13.2,0c-28.7-28.7-57.3-57.3-86-86
		c-8.5-8.5-21.8,4.7-13.2,13.2c28.7,28.7,57.3,57.3,86,86c3.6,3.6,9.6,3.6,13.2,0c28.7-28.7,57.3-57.4,86-86
		C3504.1,101.1,3490.9,87.8,3482.4,96.4L3482.4,96.4z"/>
</g>
<image style="overflow:visible;" width="61" height="274" xlink:href="ED98D4DF.jpg"  transform="matrix(9.2774 0 0 9.2774 -1692.4745 -1654)">
</image>
<image style="overflow:visible;" width="240" height="78" xlink:href="ED98D4DD.jpg"  transform="matrix(10.2179 0 0 10.2179 422 -1420)">
</image>
</svg>
