<?xml version="1.0" encoding="utf-8"?>
<!-- Generator: Adobe Illustrator 23.0.1, SVG Export Plug-In . SVG Version: 6.00 Build 0)  -->
<svg version="1.1" id="Layer_1" xmlns="http://www.w3.org/2000/svg" xmlns:xlink="http://www.w3.org/1999/xlink" x="0px" y="0px"
	 viewBox="0 0 595.4 550.4" style="enable-background:new 0 0 595.4 550.4;" xml:space="preserve">
<style type="text/css">
	.st0{fill:#84B94A;}
	.st1{fill:#333333;}
	.st2{fill:#D2DF5E;}
	.st3{fill:#F78A37;}
	.st4{fill:#F8C530;}
	.st5{fill:#EA758B;}
	.st6{fill:#D82330;}
</style>
<circle class="st0" cx="-393.5" cy="1140.5" r="237"/>
<path class="st1" d="M-549.1,1140.6c0,85.9,69.6,155.6,155.6,155.6c85.9,0,155.6-69.6,155.6-155.6H-549.1L-549.1,1140.6z"/>
<g>
	<circle class="st1" cx="-465.6" cy="1058.7" r="37.2"/>
	<circle class="st1" cx="-324.8" cy="1058.7" r="37.2"/>
</g>
<circle class="st2" cx="260.5" cy="1127.5" r="237"/>
<g>
	<path class="st1" d="M406.7,1127.6c-1.3,80.7-65.5,144.9-146.2,146.2c-80.7,1.3-144.9-67.5-146.2-146.2c-0.2-12.1-18.9-12.1-18.7,0
		c1.5,90.9,74,163.4,164.9,164.9c90.9,1.5,163.5-76.3,164.9-164.9C425.6,1115.6,406.9,1115.6,406.7,1127.6L406.7,1127.6z"/>
	<circle class="st1" cx="188.4" cy="1045.7" r="37.2"/>
	<circle class="st1" cx="329.2" cy="1045.7" r="37.2"/>
</g>
<circle class="st3" cx="-1559" cy="272" r="237"/>
<g>
	<circle class="st1" cx="-1631.1" cy="190.2" r="37.2"/>
	<circle class="st1" cx="-1490.3" cy="190.2" r="37.2"/>
	<path class="st1" d="M-1452.7,351.9c-59.3,60.3-154.7,59.9-213.4-0.9c-8.4-8.7-21.6,4.6-13.2,13.2c65.8,68,173.6,68.3,239.9,0.9
		C-1431.1,356.5-1444.3,343.2-1452.7,351.9L-1452.7,351.9z"/>
</g>
<circle class="st4" cx="-1019" cy="272" r="237"/>
<g>
	<circle class="st1" cx="-1091.1" cy="190.2" r="37.2"/>
	<circle class="st1" cx="-950.3" cy="190.2" r="37.2"/>
	<path class="st1" d="M-1150.7,361.6c86.4,0,172.8,0,259.2,0c12.1,0,12.1-18.7,0-18.7c-86.4,0-172.8,0-259.2,0
		C-1162.8,342.9-1162.8,361.6-1150.7,361.6L-1150.7,361.6z"/>
</g>
<circle class="st5" cx="-359" cy="272" r="237"/>
<g>
	<path class="st1" d="M-239.3,389.1c-66.2-67.6-174.3-67.3-240.1,0.7c-8.4,8.7,4.8,21.9,13.2,13.2c58.9-60.8,154.4-61.2,213.6-0.7
		C-244.1,411-230.9,397.7-239.3,389.1L-239.3,389.1z"/>
	<circle class="st1" cx="-431.1" cy="190.2" r="37.2"/>
	<circle class="st1" cx="-290.3" cy="190.2" r="37.2"/>
</g>
<circle class="st6" cx="303" cy="272" r="237"/>
<g>
	<path class="st1" d="M423.3,389.8c-66.1-68.3-174.7-68.3-240.7,0c-8.4,8.7,4.8,21.9,13.2,13.2c59.1-61.1,155.1-61.1,214.3,0
		C418.5,411.7,431.7,398.5,423.3,389.8L423.3,389.8z"/>
	<circle class="st1" cx="230.9" cy="227.7" r="37.2"/>
	<circle class="st1" cx="371.7" cy="227.7" r="37.2"/>
	<path class="st1" d="M382.4,103.4c-28.7,28.7-57.4,57.3-86,86c4.4,0,8.8,0,13.2,0c-28.7-28.7-57.3-57.4-86-86
		c-8.5-8.5-21.8,4.7-13.2,13.2c28.7,28.7,57.3,57.3,86,86c3.6,3.6,9.6,3.6,13.2,0c28.7-28.7,57.4-57.4,86-86
		C404.1,108.1,390.9,94.8,382.4,103.4L382.4,103.4z"/>
</g>
<image style="overflow:visible;" width="61" height="274" xlink:href="22126019.jpg"  transform="matrix(9.2774 0 0 9.2774 -1692.4745 -1654)">
</image>
<image style="overflow:visible;" width="240" height="78" xlink:href="2212601B.jpg"  transform="matrix(10.2179 0 0 10.2179 422 -1420)">
</image>
</svg>
